<?xml version="1.0" encoding="utf-8"?>
<!--Designed by Vexels.com - 2018 All Rights Reserved - https://vexels.com/terms-and-conditions/-->
<svg version="1.1" id="Layer_1" xmlns="http://www.w3.org/2000/svg" xmlns:xlink="http://www.w3.org/1999/xlink" x="0px" y="0px"
	 viewBox="0 0 1200 1200" enable-background="new 0 0 1200 1200" xml:space="preserve">
<g>
	<path fill="#EB1C22" d="M633.45,51.687c1.274,0.129,2.538,0.29,3.807,0.433C635.988,51.976,634.724,51.815,633.45,51.687z"/>
	<path fill="#EB1C22" d="M657.914,55.101c1.275,0.227,2.539,0.484,3.808,0.726C660.453,55.585,659.189,55.328,657.914,55.101z"/>
	<path fill="#EB1C22" d="M641.668,52.624c1.306,0.166,2.602,0.363,3.904,0.544C644.27,52.987,642.974,52.79,641.668,52.624z"/>
	<path fill="#EB1C22" d="M616.832,50.425c1.215,0.061,2.422,0.155,3.633,0.229C619.254,50.58,618.047,50.486,616.832,50.425z"/>
	<path fill="#EB1C22" d="M649.822,53.763c1.306,0.199,2.601,0.429,3.902,0.643C652.423,54.191,651.127,53.962,649.822,53.763z"/>
	<path fill="#EB1C22" d="M625.171,50.952c1.235,0.094,2.462,0.219,3.693,0.327C627.633,51.172,626.407,51.046,625.171,50.952z"/>
	<path fill="#EB1C22" d="M608.441,50.107c1.113,0.028,2.217,0.087,3.326,0.126C610.658,50.194,609.554,50.135,608.441,50.107z"/>
	<path fill="#EB1C22" d="M500.098,65.52c9.382-2.998,18.948-5.583,28.676-7.739C519.046,59.937,509.481,62.522,500.098,65.52z"/>
	<path fill="#EB1C22" d="M665.94,56.635c1.248,0.255,2.485,0.539,3.727,0.808C668.425,57.174,667.188,56.89,665.94,56.635z"/>
	<path fill="#EB1C22" d="M490.912,68.611c3.013-1.063,6.045-2.085,9.097-3.061C496.957,66.526,493.925,67.548,490.912,68.611z"/>
	<path fill="#EB1C22" d="M538.998,55.689c9.814-1.847,19.782-3.258,29.884-4.209C558.78,52.431,548.813,53.842,538.998,55.689z"/>
	<path fill="#EB1C22" d="M529.197,57.69c3.086-0.679,6.189-1.314,9.307-1.906C535.386,56.375,532.283,57.01,529.197,57.69z"/>
	<path fill="#EB1C22" d="M454.621,83.938c11.585-5.741,23.559-10.817,35.87-15.179C478.179,73.122,466.207,78.197,454.621,83.938z"
		/>
	<path fill="#EB1C22" d="M852.604,168.846c0.829,1.001,1.641,2.018,2.458,3.029C854.245,170.864,853.434,169.847,852.604,168.846z"
		/>
	<path fill="#EB1C22" d="M857.548,174.961c0.803,1.019,1.588,2.052,2.379,3.08C859.135,177.012,858.351,175.979,857.548,174.961z"/>
	<path fill="#EB1C22" d="M847.527,162.864c0.849,0.977,1.681,1.97,2.519,2.957C849.208,164.834,848.377,163.841,847.527,162.864z"/>
	<path fill="#EB1C22" d="M862.341,181.189c0.777,1.035,1.536,2.084,2.301,3.128C863.877,183.273,863.118,182.224,862.341,181.189z"
		/>
	<path fill="#EB1C22" d="M842.303,156.996c0.87,0.954,1.723,1.925,2.583,2.89C844.026,158.921,843.173,157.95,842.303,156.996z"/>
	<path fill="#EB1C22" d="M875.835,200.572c0.705,1.095,1.392,2.203,2.084,3.307C877.226,202.775,876.54,201.668,875.835,200.572z"/>
	<path fill="#EB1C22" d="M866.992,187.54c0.753,1.054,1.488,2.123,2.229,3.187C868.48,189.664,867.746,188.595,866.992,187.54z"/>
	<path fill="#EB1C22" d="M880.022,207.249c0.683,1.12,1.348,2.252,2.018,3.38C881.37,209.501,880.706,208.368,880.022,207.249z"/>
	<path fill="#EB1C22" d="M836.945,151.261c0.895,0.936,1.773,1.889,2.657,2.835C838.718,153.149,837.841,152.197,836.945,151.261z"
		/>
	<path fill="#EB1C22" d="M871.487,193.996c0.73,1.076,1.441,2.166,2.159,3.251C872.928,196.162,872.217,195.072,871.487,193.996z"/>
	<path fill="#EB1C22" d="M789.456,110.251c1.041,0.738,2.066,1.497,3.098,2.247C791.522,111.748,790.497,110.99,789.456,110.251z"/>
	<path fill="#EB1C22" d="M802.065,119.656c1.007,0.789,1.998,1.598,2.996,2.399C804.063,121.254,803.072,120.445,802.065,119.656z"
		/>
	<path fill="#EB1C22" d="M782.976,105.772c1.066,0.718,2.116,1.457,3.172,2.187C785.092,107.229,784.042,106.49,782.976,105.772z"/>
	<path fill="#EB1C22" d="M884.055,214.037c0.656,1.135,1.292,2.282,1.935,3.425C885.348,216.319,884.711,215.172,884.055,214.037z"
		/>
	<path fill="#EB1C22" d="M776.39,101.448c1.083,0.692,2.151,1.407,3.226,2.112C778.542,102.855,777.474,102.141,776.39,101.448z"/>
	<path fill="#EB1C22" d="M489.974,155.021c-25.38,41.424-47.244,84.956-67.775,128.951c-21.604,46.293-36.304,95.53-47.181,145.354
		l82.957,43.827l0.031,0.017c21.742-57.387,77.184-98.2,142.189-98.2c39.493,0,75.444,15.082,102.474,39.769
		c0.003-0.012,0.006-0.024,0.009-0.036c6.581-27.127,10.239-54.942,10.701-82.888c0.685-41.501-5.232-83.857-18.107-123.36
		c-11.652-35.756-28.611-70.466-49.586-101.661c-13.726-20.411-30.939-42.216-52.19-56.712c-8.259,0.161-16.441,0.629-24.54,1.39
		c-13.527,13.392-25.858,28.013-37.508,43.038C516.456,113.846,502.753,134.164,489.974,155.021z"/>
	<path fill="#EB1C22" d="M825.826,140.177c0.942,0.896,1.867,1.809,2.799,2.715C827.693,141.986,826.768,141.073,825.826,140.177z"
		/>
	<path fill="#EB1C22" d="M820.076,134.841c0.954,0.865,1.893,1.748,2.837,2.624C821.969,136.589,821.031,135.706,820.076,134.841z"
		/>
	<path fill="#EB1C22" d="M808.189,124.574c0.994,0.818,1.971,1.655,2.955,2.484C810.16,126.229,809.183,125.392,808.189,124.574z"/>
	<path fill="#EB1C22" d="M831.449,145.65c0.92,0.917,1.822,1.851,2.731,2.778C833.271,147.501,832.369,146.567,831.449,145.65z"/>
	<path fill="#EB1C22" d="M814.194,129.637c0.972,0.839,1.926,1.697,2.888,2.547C816.12,131.333,815.165,130.476,814.194,129.637z"/>
	<path fill="#EB1C22" d="M673.894,58.363c1.237,0.285,2.462,0.599,3.693,0.897C676.356,58.961,675.13,58.647,673.894,58.363z"/>
	<path fill="#EB1C22" d="M923.922,326.922c0.211,1.353,0.401,2.713,0.596,4.072C924.323,329.635,924.133,328.275,923.922,326.922z"
		/>
	<path fill="#EB1C22" d="M887.931,220.934c0.626,1.146,1.233,2.305,1.846,3.459C889.164,223.239,888.557,222.081,887.931,220.934z"
		/>
	<path fill="#EB1C22" d="M920.997,310.831c0.276,1.326,0.53,2.659,0.79,3.991C921.528,313.491,921.273,312.157,920.997,310.831z"/>
	<path fill="#EB1C22" d="M917.3,295.021c0.338,1.297,0.655,2.601,0.977,3.904C917.955,297.623,917.638,296.318,917.3,295.021z"/>
	<path fill="#EB1C22" d="M919.244,302.891c0.307,1.31,0.592,2.628,0.883,3.944C919.837,305.519,919.551,304.201,919.244,302.891z"/>
	<path fill="#EB1C22" d="M925.087,335.066c0.178,1.364,0.335,2.734,0.496,4.103C925.422,337.8,925.265,336.429,925.087,335.066z"/>
	<path fill="#EB1C22" d="M926.053,343.281c0.143,1.369,0.266,2.744,0.393,4.117C926.319,346.024,926.197,344.649,926.053,343.281z"
		/>
	<path fill="#EB1C22" d="M927.717,368.262c0.04,1.402,0.06,2.809,0.082,4.216C927.777,371.071,927.757,369.664,927.717,368.262z"/>
	<path fill="#EB1C22" d="M927.37,359.878c0.075,1.392,0.129,2.789,0.187,4.185C927.499,362.667,927.445,361.27,927.37,359.878z"/>
	<path fill="#EB1C22" d="M926.815,351.553c0.11,1.38,0.198,2.766,0.291,4.151C927.013,354.318,926.924,352.933,926.815,351.553z"/>
	<path fill="#EB1C22" d="M922.557,318.839c0.244,1.341,0.467,2.688,0.694,4.035C923.023,321.528,922.801,320.18,922.557,318.839z"/>
	<path fill="#EB1C22" d="M915.168,287.229c0.369,1.286,0.718,2.579,1.071,3.871C915.885,289.808,915.537,288.514,915.168,287.229z"
		/>
	<path fill="#EB1C22" d="M898.565,242.21c0.546,1.199,1.072,2.41,1.604,3.617C899.637,244.619,899.111,243.409,898.565,242.21z"/>
	<path fill="#EB1C22" d="M901.772,249.492c0.519,1.218,1.017,2.446,1.522,3.671C902.789,251.937,902.291,250.709,901.772,249.492z"
		/>
	<path fill="#EB1C22" d="M891.642,227.928c0.6,1.166,1.181,2.343,1.768,3.517C892.823,230.271,892.243,229.093,891.642,227.928z"/>
	<path fill="#EB1C22" d="M895.187,235.02c0.573,1.182,1.127,2.375,1.686,3.565C896.313,237.396,895.76,236.202,895.187,235.02z"/>
	<path fill="#EB1C22" d="M910.348,271.88c0.43,1.259,0.84,2.527,1.255,3.793C911.188,274.408,910.778,273.14,910.348,271.88z"/>
	<path fill="#EB1C22" d="M912.849,279.513c0.399,1.272,0.779,2.552,1.163,3.83C913.628,282.065,913.248,280.785,912.849,279.513z"/>
	<path fill="#EB1C22" d="M907.666,264.328c0.46,1.247,0.9,2.503,1.346,3.757C908.566,266.831,908.126,265.575,907.666,264.328z"/>
	<path fill="#EB1C22" d="M904.806,256.864c0.491,1.235,0.961,2.48,1.437,3.722C905.767,259.344,905.297,258.099,904.806,256.864z"/>
	<path fill="#EB1C22" d="M795.82,114.881c1.021,0.762,2.026,1.543,3.039,2.317C797.846,116.424,796.841,115.642,795.82,114.881z"/>
	<path fill="#EB1C22" d="M748.975,85.725c1.145,0.585,2.276,1.194,3.413,1.792C751.251,86.919,750.12,86.31,748.975,85.725z"/>
	<path fill="#EB1C22" d="M755.984,89.414c1.127,0.611,2.239,1.245,3.358,1.868C758.223,90.659,757.111,90.025,755.984,89.414z"/>
	<path fill="#EB1C22" d="M741.874,82.205c1.148,0.552,2.281,1.127,3.421,1.692C744.155,83.332,743.021,82.756,741.874,82.205z"/>
	<path fill="#EB1C22" d="M769.695,97.279c1.095,0.664,2.176,1.35,3.263,2.026C771.87,98.629,770.79,97.943,769.695,97.279z"/>
	<path fill="#EB1C22" d="M449.695,735.021c18.599-12.034,36.723-24.831,54.235-38.409c-3.593-5.605-7.513-11.441-11.856-17.555
		c-8.284-11.66-15.022-24.113-20.526-36.797l-0.014,0.01l-199.4,146.03h28.248h53.724
		C387.062,772.604,419.048,754.85,449.695,735.021z"/>
	<path fill="#EB1C22" d="M762.891,93.266c1.111,0.637,2.207,1.297,3.309,1.947C765.097,94.563,764.001,93.903,762.891,93.266z"/>
	<path fill="#EB1C22" d="M734.666,78.847c1.162,0.524,2.311,1.073,3.466,1.61C736.976,79.92,735.828,79.371,734.666,78.847z"/>
	<path fill="#EB1C22" d="M689.57,62.387c1.248,0.354,2.484,0.735,3.725,1.103C692.054,63.122,690.818,62.74,689.57,62.387z"/>
	<path fill="#EB1C22" d="M727.366,75.661c1.196,0.505,2.377,1.034,3.566,1.553C729.744,76.695,728.562,76.166,727.366,75.661z"/>
	<path fill="#EB1C22" d="M347.326,257.412c10.821-40.228,27.782-78.402,48.366-114.548c7.706-13.53,15.971-26.773,24.971-39.488
		c10.802-7.072,22.046-13.521,33.683-19.301c-107.179,53.239-181.079,163.382-182.177,290.914l54.721,28.91
		C329.155,354.605,334.479,305.165,347.326,257.412z"/>
	<path fill="#EB1C22" d="M681.774,60.282c1.256,0.322,2.499,0.673,3.749,1.01C684.273,60.955,683.029,60.604,681.774,60.282z"/>
	<path fill="#EB1C22" d="M697.304,64.682c1.218,0.378,2.424,0.783,3.636,1.175C699.728,65.466,698.522,65.06,697.304,64.682z"/>
	<path fill="#EB1C22" d="M712.509,69.816c1.214,0.444,2.415,0.914,3.623,1.371C714.924,70.73,713.723,70.26,712.509,69.816z"/>
	<path fill="#EB1C22" d="M719.978,72.649c1.219,0.479,2.424,0.985,3.635,1.479C722.402,73.634,721.197,73.129,719.978,72.649z"/>
	<path fill="#EB1C22" d="M704.946,67.158c1.211,0.409,2.409,0.844,3.614,1.267C707.356,68.003,706.157,67.567,704.946,67.158z"/>
	<rect x="182.416" y="906.265" fill="#403F45" width="835.168" height="0.001"/>
	<path fill="#403F45" d="M1003.735,850.795c-19.852-37.182-59.022-62.494-104.116-62.494H660.108H539.891H354.106h-53.724
		c-47.341,0-88.147,27.9-106.93,68.144c0.892-1.91,1.825-3.797,2.814-5.65H1003.735z"/>
	<path fill="#403F45" d="M188.675,868.363c0.547-1.61,1.124-3.206,1.738-4.784C189.799,865.157,189.221,866.752,188.675,868.363z"/>
	<path fill="#403F45" d="M186.688,874.818c0.471-1.703,0.972-3.394,1.516-5.065C187.66,871.425,187.159,873.114,186.688,874.818z"/>
	<path fill="#403F45" d="M190.921,862.289c0.667-1.657,1.371-3.296,2.11-4.915C192.292,858.993,191.588,860.631,190.921,862.289z"/>
	<path fill="#403F45" d="M182.529,901.782c0.053-1.413,0.138-2.818,0.24-4.218C182.667,898.965,182.582,900.369,182.529,901.782z"/>
	<path fill="#403F45" d="M1003.737,850.8c0.993,1.861,1.93,3.756,2.825,5.675C1005.667,854.555,1004.731,852.661,1003.737,850.8z"/>
	<path fill="#403F45" d="M182.948,895.222c0.152-1.63,0.347-3.246,0.565-4.856C183.296,891.976,183.099,893.592,182.948,895.222z"/>
	<path fill="#403F45" d="M183.711,888.803c0.649-4.358,1.536-8.638,2.648-12.827C185.249,880.166,184.358,884.444,183.711,888.803z"
		/>
	<path fill="#403F45" d="M1016.544,890.814c0.201,1.533,0.383,3.073,0.525,4.624
		C1016.927,893.886,1016.745,892.347,1016.544,890.814z"/>
	<path fill="#403F45" d="M1006.993,857.428c0.74,1.623,1.444,3.266,2.112,4.928C1008.438,860.693,1007.733,859.052,1006.993,857.428
		z"/>
	<path fill="#403F45" d="M1017.251,897.84c0.099,1.4,0.177,2.806,0.226,4.219C1017.428,900.646,1017.35,899.24,1017.251,897.84z"/>
	<path fill="#403F45" d="M1009.619,863.659c0.619,1.596,1.201,3.211,1.752,4.84C1010.821,866.869,1010.238,865.256,1009.619,863.659
		z"/>
	<path fill="#403F45" d="M1013.676,876.099c1.111,4.204,1.99,8.5,2.635,12.874C1015.667,884.598,1014.785,880.303,1013.676,876.099z
		"/>
	<path fill="#403F45" d="M1011.829,869.852c0.565,1.739,1.084,3.498,1.569,5.271C1012.914,873.35,1012.393,871.592,1011.829,869.852
		z"/>
	<path fill="#313034" d="M1017.584,905.926c0-0.026,0-0.049,0-0.075c0-0.107-0.001-0.218-0.002-0.325c0-0.024,0-0.048,0-0.072
		c-0.001-0.095-0.001-0.187-0.002-0.282c0-0.023,0-0.046-0.001-0.069c-0.001-0.099-0.002-0.208-0.003-0.307
		c0-0.038-0.001-0.075-0.001-0.113c-0.001-0.083-0.002-0.163-0.004-0.246c-0.001-0.062-0.002-0.124-0.003-0.187
		c-0.001-0.055-0.002-0.109-0.003-0.164c-0.001-0.072-0.003-0.146-0.004-0.217c-0.001-0.063-0.003-0.124-0.004-0.187
		c-0.002-0.068-0.003-0.135-0.005-0.203c0-0.023-0.001-0.05-0.002-0.074c-0.011-0.452-0.056-0.894-0.072-1.345
		c-0.05-1.413-0.127-2.82-0.226-4.219c-0.057-0.803-0.11-1.605-0.183-2.402c-0.142-1.551-0.323-3.091-0.525-4.624
		c-0.08-0.613-0.144-1.231-0.234-1.841c-0.644-4.374-1.524-8.67-2.635-12.874c-0.087-0.327-0.188-0.649-0.277-0.975
		c-0.485-1.773-1.005-3.533-1.569-5.271c-0.147-0.454-0.305-0.902-0.458-1.353c-0.551-1.629-1.133-3.244-1.752-4.84
		c-0.169-0.435-0.34-0.87-0.514-1.303c-0.668-1.662-1.372-3.305-2.112-4.928c-0.145-0.318-0.284-0.638-0.431-0.954
		c-0.895-1.918-1.832-3.814-2.825-5.675c-0.001-0.001-0.001-0.003-0.002-0.005l0,0H196.266c-0.989,1.853-1.923,3.74-2.814,5.65
		c-0.144,0.308-0.279,0.619-0.42,0.929c-0.739,1.619-1.443,3.258-2.11,4.915c-0.173,0.428-0.341,0.859-0.509,1.29
		c-0.614,1.578-1.191,3.174-1.738,4.784c-0.158,0.463-0.319,0.925-0.47,1.39c-0.545,1.671-1.045,3.362-1.516,5.065
		c-0.107,0.387-0.225,0.769-0.329,1.158c-1.112,4.189-2,8.469-2.648,12.827c-0.077,0.517-0.128,1.043-0.199,1.563
		c-0.218,1.61-0.413,3.226-0.565,4.856c-0.072,0.777-0.121,1.561-0.178,2.342c-0.103,1.4-0.187,2.805-0.24,4.218
		c-0.015,0.403-0.057,0.798-0.068,1.201c0,0.003,0,0.004,0,0.007c-0.004,0.135-0.007,0.274-0.011,0.409
		c-0.001,0.03-0.001,0.056-0.002,0.085c-0.002,0.064-0.003,0.13-0.004,0.194c-0.002,0.081-0.004,0.165-0.005,0.247
		c-0.001,0.051-0.002,0.101-0.003,0.152c-0.001,0.064-0.002,0.129-0.003,0.194c-0.001,0.039-0.001,0.078-0.002,0.117
		c-0.001,0.097-0.003,0.194-0.004,0.291c-0.001,0.039-0.001,0.078-0.002,0.117c-0.001,0.103-0.002,0.204-0.003,0.307
		c0,0.021,0,0.044-0.001,0.066c-0.001,0.094-0.001,0.187-0.002,0.281c0,0.027,0,0.055-0.001,0.082
		c-0.001,0.106-0.001,0.213-0.001,0.32c0,0.026,0,0.05,0,0.075c0,0.113-0.001,0.226-0.001,0.339h835.168
		C1017.584,906.154,1017.584,906.036,1017.584,905.926z"/>
	<path fill="#403F45" d="M184.637,1054.824c10.62,54.24,58.394,95.176,115.744,95.176h599.238c45.816,0,85.503-26.139,105.04-64.3
		H195.343C190.424,1076.094,186.781,1065.727,184.637,1054.824z"/>
	<path fill="#403F45" d="M1016.401,1048.609c-0.231,1.635-0.5,3.258-0.798,4.871
		C1015.9,1051.866,1016.171,1050.245,1016.401,1048.609z"/>
	<path fill="#403F45" d="M1017.115,1042.257c-0.123,1.419-0.272,2.83-0.444,4.235
		C1016.842,1045.086,1016.993,1043.676,1017.115,1042.257z"/>
	<path fill="#403F45" d="M184.399,1053.49c-0.299-1.616-0.568-3.241-0.8-4.879C183.829,1050.25,184.101,1051.874,184.399,1053.49z"
		/>
	<path fill="#403F45" d="M1015.363,1054.823c-2.144,10.902-5.785,21.266-10.702,30.872
		C1009.579,1076.089,1013.228,1065.731,1015.363,1054.823z"/>
	<path fill="#403F45" d="M1017.491,1035.725c-0.042,1.364-0.101,2.724-0.189,4.076
		C1017.39,1038.449,1017.449,1037.089,1017.491,1035.725z"/>
	<path fill="#403F45" d="M182.699,1039.805c-0.088-1.351-0.147-2.71-0.19-4.074C182.551,1037.095,182.611,1038.453,182.699,1039.805
		z"/>
	<path fill="#403F45" d="M183.33,1046.497c-0.173-1.404-0.322-2.816-0.445-4.236C183.008,1043.681,183.158,1045.092,183.33,1046.497
		z"/>
	<path fill="#313034" d="M182.416,1032.035c0,0.115,0,0.229,0.001,0.344c0,0.021,0,0.042,0,0.063
		c0.001,0.106,0.001,0.212,0.002,0.318c0,0.03,0,0.06,0.001,0.091c0.001,0.095,0.001,0.193,0.002,0.288
		c0,0.036,0.001,0.073,0.001,0.109c0.001,0.074,0.002,0.148,0.002,0.223c0.001,0.05,0.001,0.097,0.002,0.146
		c0.001,0.081,0.002,0.162,0.003,0.244c0.001,0.064,0.002,0.13,0.003,0.193c0,0.019,0.001,0.038,0.001,0.056
		c0.009,0.544,0.058,1.079,0.075,1.622c0.043,1.364,0.101,2.722,0.19,4.074c0.054,0.821,0.116,1.64,0.187,2.457
		c0.122,1.42,0.272,2.832,0.445,4.236c0.087,0.706,0.169,1.412,0.269,2.114c0.231,1.638,0.501,3.264,0.8,4.879
		c0.082,0.444,0.151,0.892,0.238,1.334c2.144,10.903,5.787,21.269,10.706,30.876h809.316h0c0.001-0.001,0.002-0.003,0.002-0.005
		c4.917-9.605,8.558-19.97,10.702-30.872c0.087-0.445,0.157-0.896,0.24-1.343c0.298-1.613,0.567-3.236,0.798-4.871
		c0.099-0.703,0.182-1.411,0.269-2.118c0.173-1.404,0.322-2.816,0.444-4.235c0.071-0.817,0.133-1.635,0.187-2.456
		c0.088-1.351,0.147-2.711,0.189-4.076c0.017-0.544,0.066-1.078,0.075-1.624c0-0.016,0.001-0.028,0.001-0.044
		c0.001-0.067,0.002-0.137,0.003-0.204c0.001-0.083,0.002-0.158,0.003-0.242c0.001-0.046,0.001-0.091,0.002-0.136
		c0.001-0.075,0.002-0.152,0.003-0.227c0-0.036,0.001-0.073,0.001-0.11c0.001-0.099,0.002-0.191,0.002-0.29
		c0-0.028,0-0.055,0.001-0.083c0-0.107,0.001-0.216,0.001-0.323c0-0.021,0-0.041,0-0.062c0-0.115,0-0.229,0-0.345v-0.001H182.416
		V1032.035z"/>
	<path fill="#6C6B72" d="M1038.089,906.266h-20.504H182.416h-20.504c-34.731,0-62.885,28.154-62.885,62.883
		s28.154,62.883,62.885,62.883h20.504h835.168h20.504c34.731,0,62.885-28.154,62.885-62.883S1072.819,906.266,1038.089,906.266z
		 M963.155,1000.593H236.845c-17.364,0-31.442-14.078-31.442-31.443s14.078-31.443,31.442-31.443h726.311
		c17.365,0,31.442,14.078,31.442,31.443S980.52,1000.593,963.155,1000.593z"/>
	<path fill="#89898E" d="M963.155,937.707H236.845c-17.364,0-31.442,14.078-31.442,31.443s14.078,31.443,31.442,31.443h726.311
		c17.365,0,31.442-14.078,31.442-31.443S980.52,937.707,963.155,937.707z"/>
	<path fill="#D60515" d="M552.426,655.459c28.16-26.196,54.13-54.85,76.731-85.989L600,548.188l-128.453,94.073
		c5.504,12.683,12.242,25.137,20.526,36.797c4.343,6.113,8.263,11.95,11.856,17.555c0.004-0.003,0.008-0.006,0.012-0.009
		C520.701,683.61,536.9,669.903,552.426,655.459z"/>
	<path fill="#D60515" d="M663.834,514.576c10.88-20.109,20.262-41.016,27.824-62.609c4.281-12.223,7.961-24.652,11.012-37.227
		c-27.03-24.687-62.982-39.769-102.474-39.769c-65.006,0-120.447,40.813-142.189,98.2L600,548.188L663.834,514.576z"/>
	<path fill="#B2151A" d="M645.687,106.794c20.976,31.195,37.934,65.905,49.586,101.661c12.875,39.503,18.792,81.859,18.107,123.36
		c-0.462,27.947-4.121,55.761-10.701,82.888c17.477,15.959,31.217,35.943,39.752,58.486l185.429-97.641
		c-0.007-1.027-0.043-2.047-0.06-3.071c-0.023-1.406-0.042-2.813-0.082-4.216c-0.04-1.403-0.102-2.8-0.159-4.198
		c-0.058-1.397-0.112-2.794-0.187-4.185c-0.076-1.395-0.172-2.784-0.265-4.175c-0.093-1.385-0.181-2.771-0.291-4.151
		c-0.11-1.389-0.241-2.771-0.369-4.155c-0.126-1.374-0.249-2.748-0.393-4.117c-0.144-1.375-0.309-2.743-0.47-4.112
		c-0.161-1.369-0.318-2.739-0.496-4.103c-0.177-1.361-0.375-2.716-0.57-4.072c-0.194-1.359-0.385-2.719-0.596-4.072
		c-0.211-1.354-0.443-2.7-0.671-4.048c-0.227-1.346-0.45-2.694-0.694-4.035c-0.244-1.343-0.509-2.68-0.77-4.017
		c-0.259-1.332-0.514-2.665-0.79-3.991c-0.278-1.337-0.576-2.666-0.87-3.996c-0.291-1.316-0.577-2.634-0.883-3.944
		c-0.31-1.327-0.641-2.645-0.968-3.966c-0.322-1.303-0.639-2.607-0.977-3.904c-0.342-1.312-0.704-2.616-1.061-3.922
		c-0.354-1.292-0.702-2.585-1.071-3.871c-0.373-1.3-0.767-2.592-1.156-3.885c-0.384-1.278-0.763-2.559-1.163-3.83
		c-0.404-1.285-0.827-2.561-1.246-3.839c-0.415-1.266-0.825-2.534-1.255-3.793c-0.434-1.271-0.888-2.532-1.337-3.795
		c-0.445-1.254-0.886-2.51-1.346-3.757c-0.463-1.253-0.945-2.496-1.423-3.742c-0.476-1.242-0.947-2.487-1.437-3.722
		c-0.492-1.24-1.005-2.469-1.512-3.701c-0.504-1.225-1.003-2.453-1.522-3.671c-0.523-1.228-1.066-2.445-1.604-3.665
		c-0.531-1.207-1.057-2.417-1.604-3.617c-0.553-1.215-1.125-2.418-1.692-3.624c-0.559-1.19-1.113-2.383-1.686-3.565
		c-0.581-1.199-1.182-2.386-1.777-3.576c-0.587-1.174-1.168-2.351-1.768-3.517c-0.611-1.185-1.241-2.358-1.865-3.534
		c-0.613-1.155-1.22-2.313-1.846-3.459c-0.636-1.165-1.292-2.317-1.941-3.472c-0.643-1.143-1.279-2.29-1.935-3.425
		c-0.661-1.143-1.34-2.274-2.015-3.408c-0.67-1.129-1.335-2.261-2.018-3.38c-0.69-1.131-1.4-2.248-2.104-3.37
		c-0.692-1.104-1.379-2.212-2.084-3.307c-0.719-1.116-1.457-2.219-2.189-3.325c-0.718-1.085-1.429-2.175-2.159-3.251
		c-0.745-1.097-1.508-2.18-2.266-3.268c-0.741-1.064-1.475-2.133-2.229-3.187c-0.773-1.083-1.565-2.151-2.35-3.223
		c-0.765-1.044-1.524-2.093-2.301-3.128c-0.794-1.058-1.607-2.101-2.414-3.149c-0.791-1.028-1.576-2.061-2.379-3.08
		c-0.818-1.037-1.655-2.059-2.485-3.085c-0.818-1.012-1.629-2.028-2.458-3.029c-0.843-1.017-1.703-2.018-2.558-3.025
		c-0.838-0.987-1.67-1.98-2.519-2.957c-0.871-1.001-1.76-1.987-2.642-2.978c-0.86-0.965-1.712-1.936-2.583-2.89
		c-0.89-0.976-1.798-1.935-2.7-2.901c-0.884-0.946-1.762-1.899-2.657-2.835c-0.913-0.953-1.842-1.89-2.766-2.832
		c-0.909-0.927-1.811-1.861-2.731-2.778c-0.932-0.929-1.881-1.84-2.824-2.758c-0.932-0.907-1.857-1.82-2.799-2.715
		c-0.962-0.914-1.94-1.809-2.913-2.711c-0.944-0.876-1.882-1.759-2.837-2.624c-0.989-0.896-1.995-1.773-2.995-2.658
		c-0.961-0.85-1.916-1.708-2.888-2.547c-1.008-0.87-2.031-1.721-3.05-2.579c-0.984-0.829-1.961-1.666-2.955-2.484
		c-1.033-0.85-2.084-1.681-3.128-2.519c-0.998-0.801-1.989-1.61-2.996-2.399c-1.06-0.83-2.136-1.641-3.206-2.458
		c-1.013-0.774-2.018-1.555-3.039-2.317c-1.08-0.805-2.176-1.59-3.266-2.382c-1.032-0.75-2.057-1.509-3.098-2.247
		c-1.094-0.776-2.204-1.53-3.308-2.293c-1.056-0.73-2.107-1.469-3.172-2.187c-1.111-0.749-2.239-1.476-3.36-2.212
		c-1.075-0.705-2.143-1.42-3.226-2.112c-1.136-0.727-2.287-1.43-3.433-2.143c-1.087-0.676-2.167-1.362-3.263-2.026
		c-1.156-0.701-2.329-1.379-3.495-2.066c-1.102-0.65-2.198-1.309-3.309-1.947c-1.175-0.674-2.365-1.324-3.548-1.983
		c-1.119-0.623-2.231-1.257-3.358-1.868c-1.191-0.645-2.396-1.266-3.596-1.897c-1.137-0.598-2.268-1.207-3.413-1.792
		c-1.219-0.623-2.452-1.221-3.68-1.828c-1.14-0.565-2.274-1.141-3.421-1.692c-1.24-0.596-2.494-1.166-3.742-1.747
		c-1.155-0.537-2.304-1.086-3.466-1.61c-1.237-0.558-2.488-1.09-3.734-1.633c-1.188-0.519-2.37-1.048-3.566-1.553
		c-1.244-0.525-2.501-1.023-3.753-1.533c-1.211-0.494-2.417-0.999-3.635-1.479c-1.275-0.502-2.564-0.976-3.846-1.462
		c-1.207-0.457-2.409-0.927-3.623-1.371c-1.309-0.478-2.632-0.929-3.949-1.391c-1.204-0.422-2.402-0.858-3.614-1.267
		c-1.329-0.449-2.671-0.869-4.006-1.301c-1.212-0.392-2.418-0.797-3.636-1.175c-1.329-0.413-2.671-0.796-4.008-1.192
		c-1.242-0.368-2.478-0.75-3.725-1.103c-1.343-0.38-2.698-0.731-4.048-1.095c-1.249-0.337-2.493-0.688-3.749-1.01
		c-1.389-0.357-2.791-0.683-4.187-1.022c-1.231-0.299-2.456-0.613-3.693-0.897c-1.402-0.323-2.817-0.615-4.227-0.92
		c-1.243-0.269-2.479-0.553-3.727-0.808c-1.4-0.286-2.811-0.54-4.217-0.809c-1.27-0.242-2.533-0.499-3.808-0.726
		c-1.391-0.248-2.794-0.464-4.191-0.694c-1.301-0.215-2.596-0.445-3.902-0.643c-1.411-0.215-2.833-0.398-4.25-0.595
		c-1.301-0.181-2.597-0.378-3.904-0.544c-1.465-0.186-2.94-0.338-4.41-0.504c-1.27-0.144-2.534-0.304-3.807-0.433
		c-1.523-0.154-3.056-0.274-4.585-0.407c-1.232-0.108-2.458-0.233-3.693-0.327c-1.563-0.119-3.137-0.201-4.706-0.298
		c-1.211-0.074-2.418-0.168-3.633-0.229c-1.683-0.085-3.375-0.133-5.065-0.193c-1.109-0.039-2.214-0.098-3.326-0.126
		C605.636,50.036,602.823,50,600,50c-2.175,0-4.341,0.04-6.505,0.082c0,0,0.001,0.001,0.001,0.001
		C614.748,64.578,631.96,86.383,645.687,106.794z"/>
	<path fill="#A20410" d="M663.834,514.576l78.597-41.387c-8.534-22.543-22.274-42.527-39.752-58.486
		c-0.003,0.012-0.006,0.024-0.009,0.036c-3.051,12.576-6.731,25.004-11.012,37.227C684.096,473.559,674.714,494.467,663.834,514.576
		z"/>
	<path fill="#B2151A" d="M503.942,696.603c-0.004,0.003-0.008,0.005-0.012,0.009c-17.512,13.578-35.637,26.375-54.235,38.409
		c-30.647,19.828-62.633,37.583-95.589,53.28h185.785C539.891,788.301,542.979,757.469,503.942,696.603z"/>
	<path fill="#B2151A" d="M707.925,679.058c-51.495,72.478-47.817,109.244-47.817,109.244h239.511h28.248v-0.795L728.569,642.034
		C723.047,654.797,716.261,667.325,707.925,679.058z"/>
	<path fill="#A20410" d="M707.925,679.058c8.336-11.733,15.122-24.26,20.644-37.024l-99.412-72.563
		c-22.601,31.139-48.571,59.793-76.731,85.989c-15.526,14.443-31.725,28.151-48.484,41.144
		c39.037,60.866,35.949,91.698,35.949,91.698h120.217C660.108,788.301,656.43,751.536,707.925,679.058z"/>
	<path fill="#C2C1C1" d="M272.133,374.97v2.897c0-0.962,0.004-1.931,0.013-2.891L272.133,374.97z"/>
	<path fill="#B2151A" d="M448.152,503.591h1.8c1.63-10.543,4.344-20.728,8.022-30.438l-82.957-43.827
		c-0.054,0.244-0.107,0.488-0.16,0.732c-10.742,49.38-17.909,99.434-25.995,149.291c-2.065,12.733-4.189,25.455-6.436,38.158
		c-0.548,3.1-1.104,6.199-1.667,9.295c-0.263,1.45-0.529,2.898-0.797,4.347c-0.161,0.874-0.426,4.663-1.123,5.101
		c-0.003,0.002-0.007,0.003-0.011,0.003c-0.456,0-5.14-13.343-5.607-14.92c-6.778-22.932-8.203-47.167-8.442-70.951
		c-0.233-23.05,0.426-46.119,0.5-69.173c0.082-25.129,0.411-50.263,1.523-75.371c0.029-0.646,0.058-1.294,0.088-1.94l-54.721-28.91
		l-0.024-0.012c-0.008,0.96-0.013,1.929-0.013,2.891v410.434l199.4-146.03C442.818,576.112,448.152,503.591,448.152,503.591z"/>
	<path fill="#A20410" d="M458.005,473.17l-0.031-0.017c-3.679,9.71-6.392,19.895-8.022,30.438h-1.8c0,0-5.334,72.521,23.381,138.68
		l0.014-0.01L600,548.188L458.005,473.17z"/>
	<path fill="#C2C1C1" d="M927.867,787.506l1.089,0.795V374.97l-1.097,0.578c0.005,0.772,0.008,1.546,0.008,2.319V787.506z"/>
	<path fill="#A20410" d="M663.834,514.576L600,548.188l29.157,21.282c2.165-2.982,4.296-5.985,6.398-9.012
		C645.801,545.698,655.28,530.383,663.834,514.576z"/>
	<path fill="#871014" d="M742.43,473.189c3.672,9.699,6.381,19.873,8.009,30.402h1.408c0,0,0.575,7.888,0.324,20.797
		c0.016,0.878,0.067,1.745,0.067,2.627c0,5.906-0.372,11.722-1.028,17.453c-2.014,26.743-7.69,63.008-22.642,97.566l199.298,145.473
		V377.867c0-0.774-0.003-1.547-0.008-2.319L742.43,473.189z"/>
	<path fill="#7B030C" d="M663.834,514.576c-8.553,15.807-18.033,31.123-28.279,45.882c-2.102,3.028-4.233,6.03-6.398,9.012
		l99.412,72.563c14.952-34.558,20.627-70.823,22.642-97.566c0.656-5.73,1.028-11.546,1.028-17.453c0-0.882-0.051-1.749-0.067-2.627
		c0.251-12.909-0.324-20.797-0.324-20.797h-1.408c-1.628-10.529-4.338-20.703-8.009-30.402L663.834,514.576z"/>
	<path fill="#EF494E" d="M395.692,142.864c-20.584,36.146-37.545,74.32-48.366,114.548c-12.848,47.753-18.172,97.193-20.436,146.487
		l48.127,25.427c10.877-49.824,25.577-99.061,47.181-145.354c20.531-43.995,42.395-87.527,67.775-128.951
		c12.78-20.857,26.482-41.175,41.475-60.51c11.65-15.026,23.982-29.646,37.508-43.038c0.001-0.001,0.001-0.001,0.002-0.002
		c-0.026,0.002-0.051,0.006-0.076,0.008c-10.102,0.951-20.07,2.363-29.884,4.209c-0.165,0.031-0.329,0.063-0.495,0.095
		c-3.118,0.592-6.221,1.227-9.307,1.906c-0.141,0.031-0.282,0.061-0.423,0.092c-9.728,2.155-19.294,4.741-28.676,7.739
		c-0.03,0.009-0.059,0.019-0.089,0.029c-3.052,0.977-6.084,1.999-9.097,3.061c-0.141,0.05-0.281,0.099-0.422,0.149
		c-12.311,4.362-24.284,9.437-35.87,15.179c-0.092,0.046-0.183,0.091-0.274,0.136c-11.636,5.78-22.881,12.23-33.683,19.301
		C411.663,116.092,403.398,129.335,395.692,142.864z"/>
	<path fill="#C14448" d="M326.803,405.839c-1.113,25.107-1.442,50.241-1.523,75.371c-0.073,23.053-0.733,46.123-0.5,69.173
		c0.24,23.785,1.664,48.02,8.442,70.951c0.467,1.577,5.152,14.92,5.607,14.92c0.004,0,0.008-0.001,0.011-0.003
		c0.697-0.438,0.962-4.227,1.123-5.101c0.268-1.449,0.533-2.897,0.797-4.347c0.564-3.097,1.12-6.195,1.667-9.295
		c2.247-12.703,4.371-25.425,6.436-38.158c8.086-49.857,15.253-99.911,25.995-149.291c0.053-0.244,0.106-0.488,0.16-0.732
		l-48.127-25.427C326.861,404.546,326.831,405.193,326.803,405.839z"/>
</g>
</svg>
