<?xml version="1.0" encoding="utf-8"?>
<!--Designed by Vexels.com - 2018 All Rights Reserved - https://vexels.com/terms-and-conditions/-->
<svg version="1.1" id="Layer_1" xmlns="http://www.w3.org/2000/svg" xmlns:xlink="http://www.w3.org/1999/xlink" x="0px" y="0px"
	 viewBox="0 0 1200 1200" enable-background="new 0 0 1200 1200" xml:space="preserve">
<g>
	<g>
		<g>
			<path fill="#403F45" d="M521.949,1053.932c-22.453,0-57.069-4.8-110.453-19.564c-31.438-8.697-62.202-47.074-94.049-117.324
				c-23.781-52.46-48.34-123.016-72.996-209.709c-41.615-146.323-45.184-184.465-45.627-188.609l33.134-3.547l-16.567,1.774
				l16.447-2.66c0.21,1.212,2.682,37.028,45.638,187.335c73.126,255.879,124.298,295.476,142.904,300.621
				c95.434,26.393,117.61,16.849,118.51,16.432c-0.011,0.005-1.033,0.491-2.466,1.866l23.076,24.044
				C554.843,1049.056,544.568,1053.932,521.949,1053.932z"/>
		</g>
		<g>
			<path opacity="0.28" fill="#231F20" d="M536.424,1020.546c1.433-1.375,2.456-1.86,2.466-1.866
				c-0.426,0.198-5.63,2.433-21.086,1.944c2.37,10.172,2.122,21.066,0.89,31.266c-0.08,0.665-0.184,1.33-0.274,1.995
				c1.201,0.025,2.391,0.047,3.528,0.047c22.619,0,32.894-4.876,37.551-9.343L536.424,1020.546z"/>
			<path fill="#403F45" d="M518.839,1028.943c-0.288-2.79-0.773-5.583-1.414-8.334c-17.27-0.589-47.121-4.555-97.045-18.361
				c-18.607-5.145-69.778-44.742-142.904-300.621c-42.956-150.306-45.428-186.122-45.638-187.335l-16.447,2.66l-16.567,1.774
				c0.443,4.144,4.012,42.287,45.627,188.609c24.656,86.693,49.215,157.249,72.996,209.709
				c31.846,70.25,62.611,108.627,94.049,117.324c50.504,13.967,84.193,19.01,106.694,19.514
				C519.336,1045.603,519.692,1037.211,518.839,1028.943z"/>
		</g>
		<g>
			<path opacity="0.28" fill="#231F20" d="M336.588,917.045c-23.781-52.46-48.34-123.016-72.996-209.709
				c-41.615-146.323-45.183-184.465-45.627-188.609l14.428-1.545c-0.351-1.805-0.539-2.794-0.555-2.889l-16.447,2.66l16.567-1.774
				l-16.567,1.774l-16.567,1.774c0.443,4.144,4.012,42.287,45.627,188.609c24.656,86.693,49.215,157.249,72.996,209.709
				c31.846,70.25,62.611,108.627,94.049,117.324c53.384,14.764,88,19.564,110.453,19.564c3.28,0,6.271-0.113,9.053-0.302
				c-22.355-1.233-54.385-6.546-100.365-19.262C399.198,1025.671,368.434,987.295,336.588,917.045z"/>
			<path fill="#403F45" d="M536.424,1020.546c1.433-1.375,2.456-1.86,2.466-1.866c-0.273,0.126-2.515,1.085-8.122,1.634
				c2.052,0.14,3.936,0.23,5.714,0.292L536.424,1020.546z"/>
			<path fill="#403F45" d="M578.64,1044.59l-23.076-24.044c1.433-1.375,2.456-1.86,2.466-1.866
				c-0.43,0.199-5.742,2.474-21.549,1.926l23.018,23.984c-3.981,3.819-12.099,7.927-28.498,9.041
				c3.599,0.198,6.974,0.302,10.088,0.302C563.708,1053.932,573.984,1049.056,578.64,1044.59z"/>
		</g>
		<path fill="#403F45" d="M780.052,1150H563.868c-15.499,0-28.064-12.565-28.064-28.064V777.412h272.311v344.524
			C808.115,1137.435,795.551,1150,780.052,1150z"/>
		<path opacity="0.28" fill="#231F20" d="M585.064,924.863c27.215,7.001,55.453,9.82,83.516,9.723
			c29.565-0.101,59.156-3.465,88.002-9.942c17.489-3.927,34.787-9.011,51.534-15.481v-131.75h-272.31V905.97
			C551.301,914.35,568.041,920.483,585.064,924.863z"/>
		<g>
			<circle fill="#EB1C22" cx="671.96" cy="443.469" r="393.469"/>
			<circle opacity="0.28" fill="#231F20" cx="671.96" cy="443.469" r="393.469"/>
			<circle fill="#EB1C22" cx="671.96" cy="443.469" r="338.45"/>
			<circle opacity="0.28" fill="#231F20" cx="671.96" cy="443.469" r="123.998"/>
			<circle fill="#EB1C22" cx="671.96" cy="443.469" r="84.741"/>
			<circle opacity="0.2" fill="#FFFFFF" cx="671.96" cy="443.469" r="46.847"/>
		</g>
		<g>
			<circle fill="#D4D8D9" cx="215.609" cy="516.51" r="81.037"/>
			<path opacity="0.28" fill="#231F20" d="M227.923,583.574c-11.492-8.677-20.413-20.437-26.573-33.395
				c-6.504-13.679-10.043-28.761-10.546-43.889c-0.507-15.218,2.089-30.629,8.24-44.596c1.607-3.649,3.488-7.167,5.477-10.621
				c2.387-4.147,5.216-8.075,8.605-11.465c1.518-1.518,3.153-2.872,4.868-4.077c-0.794-0.023-1.585-0.06-2.384-0.06
				c-44.756,0-81.037,36.282-81.037,81.037c0,44.756,36.281,81.037,81.037,81.037c9.823,0,19.237-1.75,27.95-4.951
				C238.033,590.232,232.769,587.234,227.923,583.574z"/>
		</g>
	</g>
	<g opacity="0.2">
		<g>
			<path fill="#FFFFFF" d="M699.939,174.598c-6.257,0-12.458,0.232-18.608,0.652c139.81,9.56,250.262,125.982,250.262,268.218
				S821.141,702.127,681.331,711.687c6.15,0.42,12.351,0.652,18.608,0.652c148.493,0,268.871-120.377,268.871-268.87
				S848.432,174.598,699.939,174.598z"/>
		</g>
	</g>
</g>
</svg>
